<?xml version="1.0" encoding="UTF-8" standalone="no"?>
<!-- Generator: Adobe Illustrator 26.0.1, SVG Export Plug-In . SVG Version: 6.00 Build 0)  -->

<svg
   version="1.1"
   id="Layer_1"
   x="0px"
   y="0px"
   viewBox="0 0 1188.38 324.26"
   style="enable-background:new 0 0 1188.38 324.26;"
   xml:space="preserve"
   sodipodi:docname="logo-varjenje.svg"
   inkscape:version="1.4 (86a8ad7, 2024-10-11)"
   xmlns:inkscape="http://www.inkscape.org/namespaces/inkscape"
   xmlns:sodipodi="http://sodipodi.sourceforge.net/DTD/sodipodi-0.dtd"
   xmlns="http://www.w3.org/2000/svg"
   xmlns:svg="http://www.w3.org/2000/svg"><defs
   id="defs5" /><sodipodi:namedview
   id="namedview5"
   pagecolor="#ffffff"
   bordercolor="#000000"
   borderopacity="0.25"
   inkscape:showpageshadow="2"
   inkscape:pageopacity="0.0"
   inkscape:pagecheckerboard="0"
   inkscape:deskcolor="#d1d1d1"
   inkscape:zoom="0.52748293"
   inkscape:cx="55.925981"
   inkscape:cy="31.280633"
   inkscape:window-width="1920"
   inkscape:window-height="991"
   inkscape:window-x="-9"
   inkscape:window-y="-9"
   inkscape:window-maximized="1"
   inkscape:current-layer="Layer_1" />
<style
   type="text/css"
   id="style1">
	.st0{fill:none;stroke:#ED1C24;stroke-width:3;stroke-miterlimit:10;}
	.st1{fill:#ED1C24;}
	.st2{font-family:'Sacramento-Regular';}
	.st3{font-size:135.2461px;}
</style>
<g
   id="g5"
   transform="matrix(0.87323953,0,0,0.80602918,-27.268394,46.099651)">
	<path
   class="st0"
   d="m 841.69,189.88 c -3.56,4.76 -9.33,11.45 -17.87,17.7 -6.86,5.02 -15.43,11.3 -27.02,12.83 -12.65,1.68 -16.53,-3.93 -32.48,-5.63 -14.51,-1.55 -23.09,1.83 -32.92,3.46 -14.59,2.43 -36.23,1.72 -66.27,-12.99"
   id="path1" />
	<path
   d="m 663.83,222.09 c -4.86,-2.31 -8.96,-4.02 -12.78,-6.21 -1.49,-0.86 -3.5,-2.98 -3.31,-4.23 0.95,-6.28 -3.97,-6.35 -7.71,-8.26 -0.82,1.19 -1.56,2.17 -2.2,3.22 -4.84,7.89 -11.72,10.47 -19.97,6.51 -40.22,-19.3 -83.58,-29.54 -125.63,-43.5 -7.06,-2.34 -15.46,-1.19 -23.2,-0.78 -6.09,0.32 -11.57,0.17 -16.97,-3.32 -10.12,-6.55 -20.54,-12.65 -30.92,-18.8 -5.67,-3.36 -8.08,-7.68 -5.61,-14.26 1.69,-4.5 2.93,-9.16 4.59,-14.46 -14.35,-4.65 -28.17,-9.01 -41.9,-13.62 -24.12,-8.1 -48.52,-9.43 -73.05,-2.57 -8.49,2.37 -16.59,6.16 -24.73,9.66 -1.29,0.56 -1.82,2.94 -2.66,4.51 -1.04,1.93 -1.54,4.56 -3.13,5.7 -6.66,4.8 -8.33,8.09 -13.54,-2.38 -1.51,-3.03 -3.51,-5.85 -4.72,-8.98 -1.19,-3.06 -6.2,-5.96 -1.29,-9.73 5.68,-4.37 10.68,-4.44 14.08,-1.49 14.31,-4.64 27.69,-10.04 41.58,-13.26 24.92,-5.77 49.57,-2.79 73.7,5.35 13.16,4.43 26.4,8.61 40.11,13.06 1.83,-5.58 3.34,-10.58 5.11,-15.49 2.3,-6.38 6.42,-8.8 12.91,-6.78 17.94,5.56 35.81,11.38 53.62,17.35 3.12,1.05 6.32,2.86 8.62,5.17 13.43,13.55 30.36,20.13 48.11,25.68 28.8,9.02 57.96,17.17 85.17,30.64 12.77,6.32 15.07,11.79 10.19,25.15 3.53,2.03 6.53,6.07 11.23,1.35 0.87,-0.87 3.32,-0.99 4.64,-0.45 4.46,1.82 8.73,4.09 13.52,6.4 -4.67,9.67 -9.12,18.94 -13.86,28.82 z"
   id="path2" />
	<path
   class="st1"
   d="m 162.28,223.28 c 6.58,-4.88 12.38,-9.17 18.17,-13.46 -0.29,-0.5 -0.58,-1 -0.87,-1.51 -6.62,2.83 -13.23,5.67 -21.06,9.02 3.42,-7.77 6.32,-14.37 9.22,-20.97 -0.56,-0.34 -1.13,-0.67 -1.69,-1.01 -4.2,5.81 -8.4,11.62 -13.4,18.52 -1.01,-8.23 -1.88,-15.33 -2.74,-22.42 -0.58,-0.02 -1.16,-0.03 -1.74,-0.05 -0.82,7.03 -1.64,14.05 -2.6,22.34 -5.16,-6.82 -9.54,-12.6 -13.92,-18.39 -0.48,0.27 -0.96,0.55 -1.44,0.82 2.91,6.62 5.81,13.25 9.28,21.15 -7.67,-3.3 -14.28,-6.14 -20.88,-8.97 -0.28,0.47 -0.56,0.94 -0.84,1.4 5.83,4.4 11.65,8.8 18.51,13.98 -33.32,0 -65.15,0 -96.97,0 -0.06,-0.71 -0.12,-1.42 -0.18,-2.13 20.95,-1.73 41.91,-3.46 62.86,-5.19 0.12,-0.41 0.25,-0.82 0.37,-1.23 -10.72,-4.1 -21.45,-8.21 -32.17,-12.31 0.18,-0.74 0.37,-1.48 0.55,-2.22 13.3,2.19 26.6,4.37 39.9,6.56 0.2,-0.35 0.39,-0.7 0.59,-1.05 -19.52,-12.5 -39.03,-25.01 -58.55,-37.51 0.4,-0.72 0.8,-1.44 1.21,-2.16 20.18,10.4 40.37,20.8 60.55,31.2 0.37,-0.47 0.74,-0.95 1.11,-1.42 -8.38,-10.09 -16.76,-20.17 -25.14,-30.26 0.57,-0.58 1.15,-1.16 1.72,-1.74 10.34,8.51 20.69,17.03 31.03,25.54 0.38,-0.28 0.77,-0.57 1.15,-0.85 -10.5,-20.28 -21,-40.57 -31.5,-60.85 0.72,-0.44 1.43,-0.87 2.15,-1.31 12.26,19.07 24.52,38.13 36.78,57.2 0.48,-0.15 0.96,-0.29 1.44,-0.44 -2.13,-13 -4.27,-26.01 -6.4,-39.01 0.74,-0.23 1.48,-0.46 2.22,-0.69 4.68,12.34 9.37,24.69 14.05,37.03 0.5,-0.05 1.01,-0.09 1.51,-0.14 1.05,-22.71 2.1,-45.43 3.16,-68.14 0.86,0 1.71,0.01 2.57,0.01 1.04,22.65 2.08,45.3 3.12,67.95 0.47,0.17 0.94,0.34 1.41,0.52 4.73,-12.4 9.45,-24.8 14.18,-37.21 0.73,0.2 1.45,0.4 2.18,0.6 -2.16,13.11 -4.33,26.23 -6.49,39.34 0.38,0.21 0.75,0.43 1.13,0.64 3.71,-5.59 7.42,-11.17 11.4,-17.16 1.86,1.17 3.54,2.22 5.69,3.58 -3.11,6.19 -6.08,12.1 -9.04,18.01 0.38,0.29 0.76,0.58 1.13,0.87 10.29,-8.51 20.57,-17.02 30.86,-25.53 0.58,0.53 1.16,1.06 1.75,1.59 -8.38,10.22 -16.75,20.44 -25.13,30.65 0.3,0.46 0.59,0.92 0.89,1.38 20.16,-10.43 40.31,-20.86 60.47,-31.29 0.44,0.73 0.89,1.46 1.33,2.19 -19.45,12.48 -38.89,24.97 -58.34,37.45 0.18,0.34 0.35,0.69 0.53,1.03 13.26,-2.2 26.52,-4.4 39.78,-6.6 0.24,0.71 0.48,1.43 0.72,2.14 -9.43,3.65 -18.87,7.3 -28.3,10.94 0.12,0.43 0.24,0.86 0.37,1.3 110.44,2.15 220.88,4.31 331.32,6.46 0,0.6 -0.01,1.2 -0.01,1.8 -122.57,0.01 -245.1,0.01 -368.96,0.01 z"
   id="path3" />
	<path
   d="m 246.86,109.25 c 3.5,6.46 6.68,12.34 10.12,18.67 -16.94,9.26 -33.32,18.36 -49.85,27.18 -6.11,3.26 -12.5,6.02 -18.89,8.71 -5.23,2.2 -7.47,-1.36 -9.67,-5.34 -2.12,-3.84 -3.57,-7.29 0.72,-10.54 2.69,-2.04 5.17,-4.45 8.09,-6.07 19.53,-10.83 39.16,-21.5 59.48,-32.61 z"
   id="path4" />
	<path
   class="st1"
   d="m 516.7,184.87 c -2.23,4.36 -3.03,7.89 -5.24,9.7 -2.07,1.69 -6.44,3.02 -8.4,1.95 -10.83,-5.93 -21.24,-12.65 -33.31,-20.02 18.04,-4.34 31.44,4.25 46.95,8.37 z"
   id="path5" />
	<text
   transform="translate(835.5768,219.5023)"
   class="st1 st2 st3"
   id="text5">varjenje</text>
</g>
</svg>
